# xmcd
#
# Track frame offsets:
# 150
# 16053
# 30890
# 48017
# 63933
# 79336
# 92530
# 103004
# 121578
# 134873
# 147195
# 162759
# 177164
# 194149
#
# Disc length: 2807 seconds
#
#
# Revision: 3
# Processed by: cddbd v1.5.1PL2 Copyright (c) Steve Scherf et al.
# Submitted via: FreeRIP 2.944 
#
DISCID=af0af50e
DTITLE=Adam Harvey - Sugar Talk
DYEAR=1999
DGENRE=Country
TTITLE0=Whem I'm Drinking
TTITLE1=Gypsy Queen
TTITLE2=I Blame You
TTITLE3=Hold On To My Heart
TTITLE4=Goodnight Sweetheart
TTITLE5=Treak Me Like a Dog
TTITLE6=Sugar Talk
TTITLE7=I Never Go Around Mirrors
TTITLE8=I Can Tell By The Way You Dance
TTITLE9=Caroline
TTITLE10=When You Love Somebody
TTITLE11=Love Sisters
TTITLE12=It's Still Love
TTITLE13=Don't Tell Me (You're Not In Love)
EXTD=YEAR: 1999 ID3G:   2
EXTT0=
EXTT1=
EXTT2=
EXTT3=
EXTT4=
EXTT5=
EXTT6=
EXTT7=
EXTT8=
EXTT9=
EXTT10=
EXTT11=
EXTT12=
EXTT13=
PLAYORDER=
